# xmcd
#
# Track frame offsets: 
#        150
#        7093
#        25355
#        47239
#        61558
#        72674
#        91760
#        113108
#        129878
#        157497
#        171450
#        188587
#
# Disc length: 2637 seconds
#
# Revision: 1
# Processed by: cddbd v1.5.2PL0 Copyright (c) Steve Scherf et al.
# Submitted via: ExactAudioCopyFreeDBPlugin 1.0
#
DISCID=a30a4b0c
DTITLE=Soulmate - Moving on
DYEAR=2009
DGENRE=Blues
TTITLE0=Peace Prayer
TTITLE1=Moving On
TTITLE2=Set Me Free
TTITLE3=Your Sweet Loving
TTITLE4=Remembering Rory
TTITLE5=Come 'Round My House
TTITLE6=Cup of Tea
TTITLE7=Smile At Me
TTITLE8=She Is
TTITLE9=Kool Kat Strut
TTITLE10=Stay Away
TTITLE11=Peace Prayer (Reprise)
EXTD=
EXTT0=
EXTT1=
EXTT2=
EXTT3=
EXTT4=
EXTT5=
EXTT6=
EXTT7=
EXTT8=
EXTT9=
EXTT10=
EXTT11=
PLAYORDER=
